# ProBuilder 6.0.5
# https://unity3d.com/unity/features/worldbuilding/probuilder
# 27.07.2025 20:00:47

mtllib ./Cylinder.mtl
o Cylinder

g Cylinder
v -0.5 -0.5 0
v -0.5 -0.1666667 0
v -0.3535534 -0.5 0.3535534
v -0.3535534 -0.1666667 0.3535534
v 2.185569E-08 -0.5 0.5
v 2.185569E-08 -0.1666667 0.5
v 0.3535534 -0.5 0.3535534
v 0.3535534 -0.1666667 0.3535534
v 0.5 -0.5 -4.371139E-08
v 0.5 -0.1666667 -4.371139E-08
v 0.3535534 -0.5 -0.3535534
v 0.3535534 -0.1666667 -0.3535534
v -5.96244E-09 -0.5 -0.5
v -5.96244E-09 -0.1666667 -0.5
v -0.3535533 -0.5 -0.3535534
v -0.3535533 -0.1666667 -0.3535534
v -0.5 0.1666667 0
v -0.3535534 0.1666667 0.3535534
v 2.185569E-08 0.1666667 0.5
v 0.3535534 0.1666667 0.3535534
v 0.5 0.1666667 -4.371139E-08
v 0.3535534 0.1666667 -0.3535534
v -5.96244E-09 0.1666667 -0.5
v -0.3535533 0.1666667 -0.3535534
v -0.5 0.5 0
v -0.3535534 0.5 0.3535534
v 2.185569E-08 0.5 0.5
v 0.3535534 0.5 0.3535534
v 0.5 0.5 -4.371139E-08
v 0.3535534 0.5 -0.3535534
v -5.96244E-09 0.5 -0.5
v -0.3535533 0.5 -0.3535534
v 0 -0.5 0
v 0 0.5 0

vt -0.1913417 -0.5
vt -0.1913417 -0.1666667
vt 0.1913417 -0.5
vt 0.1913417 -0.1666667
vt -0.1913417 0.1666667
vt 0.1913417 0.1666667
vt -0.1913417 0.5
vt 0.1913417 0.5
vt -0.5 0
vt 0 0
vt -0.3535534 0.3535534
vt 0.5 0
vt 0.3535534 0.3535534
vt 2.185569E-08 0.5
vt 0.3535534 -0.3535534
vt -0.3535534 -0.3535534
vt -5.96244E-09 -0.5

vn -0.9238795 0 0.3826835
vn -0.3826835 0 0.9238796
vn 0.3826835 0 0.9238795
vn 0.9238796 0 0.3826835
vn 0.9238795 0 -0.3826835
vn 0.3826835 0 -0.9238794
vn -0.3826834 0 -0.9238796
vn -0.9238794 0 -0.3826835
vn 0 -1 0
vn 0 1 0

usemtl ProBuilderDefault
f 1/9/9 33/10/9 3/11/9
f 3/11/9 33/10/9 5/14/9
f 5/14/9 33/10/9 7/13/9
f 7/13/9 33/10/9 9/12/9
f 9/12/9 33/10/9 11/15/9
f 11/15/9 33/10/9 13/17/9
f 13/17/9 33/10/9 15/16/9
f 15/16/9 33/10/9 1/9/9
f 26/13/10 34/10/10 25/12/10
f 27/14/10 34/10/10 26/13/10
f 28/11/10 34/10/10 27/14/10
f 29/9/10 34/10/10 28/11/10
f 30/16/10 34/10/10 29/9/10
f 31/17/10 34/10/10 30/16/10
f 32/15/10 34/10/10 31/17/10
f 25/12/10 34/10/10 32/15/10
f 4/4/1 2/2/1 1/1/1
f 1/1/1 3/3/1 4/4/1
f 6/4/2 4/2/2 3/1/2
f 3/1/2 5/3/2 6/4/2
f 8/4/3 6/2/3 5/1/3
f 5/1/3 7/3/3 8/4/3
f 10/4/4 8/2/4 7/1/4
f 7/1/4 9/3/4 10/4/4
f 12/4/5 10/2/5 9/1/5
f 9/1/5 11/3/5 12/4/5
f 14/4/6 12/2/6 11/1/6
f 11/1/6 13/3/6 14/4/6
f 16/4/7 14/2/7 13/1/7
f 13/1/7 15/3/7 16/4/7
f 2/4/8 16/2/8 15/1/8
f 15/1/8 1/3/8 2/4/8
f 18/6/1 17/5/1 2/2/1
f 2/2/1 4/4/1 18/6/1
f 19/6/2 18/5/2 4/2/2
f 4/2/2 6/4/2 19/6/2
f 20/6/3 19/5/3 6/2/3
f 6/2/3 8/4/3 20/6/3
f 21/6/4 20/5/4 8/2/4
f 8/2/4 10/4/4 21/6/4
f 22/6/5 21/5/5 10/2/5
f 10/2/5 12/4/5 22/6/5
f 23/6/6 22/5/6 12/2/6
f 12/2/6 14/4/6 23/6/6
f 24/6/7 23/5/7 14/2/7
f 14/2/7 16/4/7 24/6/7
f 17/6/8 24/5/8 16/2/8
f 16/2/8 2/4/8 17/6/8
f 26/8/1 25/7/1 17/5/1
f 17/5/1 18/6/1 26/8/1
f 27/8/2 26/7/2 18/5/2
f 18/5/2 19/6/2 27/8/2
f 28/8/3 27/7/3 19/5/3
f 19/5/3 20/6/3 28/8/3
f 29/8/4 28/7/4 20/5/4
f 20/5/4 21/6/4 29/8/4
f 30/8/5 29/7/5 21/5/5
f 21/5/5 22/6/5 30/8/5
f 31/8/6 30/7/6 22/5/6
f 22/5/6 23/6/6 31/8/6
f 32/8/7 31/7/7 23/5/7
f 23/5/7 24/6/7 32/8/7
f 25/8/8 32/7/8 24/5/8
f 24/5/8 17/6/8 25/8/8

